<svg id="visual" viewBox="0 0 960 540" width="960" height="540" xmlns="http://www.w3.org/2000/svg" xmlns:xlink="http://www.w3.org/1999/xlink" version="1.1"><rect x="0" y="0" width="960" height="540" fill="#8f5b68"></rect><path d="M0 55L16 70.3C32 85.7 64 116.3 96 130C128 143.7 160 140.3 192 131.5C224 122.7 256 108.3 288 109.7C320 111 352 128 384 121.7C416 115.3 448 85.7 480 76.5C512 67.3 544 78.7 576 92C608 105.3 640 120.7 672 120.2C704 119.7 736 103.3 768 107.3C800 111.3 832 135.7 864 143.2C896 150.7 928 141.3 944 136.7L960 132L960 0L944 0C928 0 896 0 864 0C832 0 800 0 768 0C736 0 704 0 672 0C640 0 608 0 576 0C544 0 512 0 480 0C448 0 416 0 384 0C352 0 320 0 288 0C256 0 224 0 192 0C160 0 128 0 96 0C64 0 32 0 16 0L0 0Z" fill="#5f2e3b"></path><path d="M0 127L16 113.3C32 99.7 64 72.3 96 68C128 63.7 160 82.3 192 84.3C224 86.3 256 71.7 288 74.7C320 77.7 352 98.3 384 96.2C416 94 448 69 480 60.8C512 52.7 544 61.3 576 60.3C608 59.3 640 48.7 672 50.7C704 52.7 736 67.3 768 76.7C800 86 832 90 864 88.5C896 87 928 80 944 76.5L960 73L960 0L944 0C928 0 896 0 864 0C832 0 800 0 768 0C736 0 704 0 672 0C640 0 608 0 576 0C544 0 512 0 480 0C448 0 416 0 384 0C352 0 320 0 288 0C256 0 224 0 192 0C160 0 128 0 96 0C64 0 32 0 16 0L0 0Z" fill="#6f3d4a"></path><path d="M0 17L16 19.7C32 22.3 64 27.7 96 37C128 46.3 160 59.7 192 69.3C224 79 256 85 288 80.8C320 76.7 352 62.3 384 57C416 51.7 448 55.3 480 60C512 64.7 544 70.3 576 65C608 59.7 640 43.3 672 39.5C704 35.7 736 44.3 768 44C800 43.7 832 34.3 864 30C896 25.7 928 26.3 944 26.7L960 27L960 0L944 0C928 0 896 0 864 0C832 0 800 0 768 0C736 0 704 0 672 0C640 0 608 0 576 0C544 0 512 0 480 0C448 0 416 0 384 0C352 0 320 0 288 0C256 0 224 0 192 0C160 0 128 0 96 0C64 0 32 0 16 0L0 0Z" fill="#7f4c59"></path><path d="M0 11L16 13.5C32 16 64 21 96 20.3C128 19.7 160 13.3 192 17.2C224 21 256 35 288 34.2C320 33.3 352 17.7 384 14.8C416 12 448 22 480 25.2C512 28.3 544 24.7 576 23.7C608 22.7 640 24.3 672 21C704 17.7 736 9.3 768 13.7C800 18 832 35 864 42.3C896 49.7 928 47.3 944 46.2L960 45L960 0L944 0C928 0 896 0 864 0C832 0 800 0 768 0C736 0 704 0 672 0C640 0 608 0 576 0C544 0 512 0 480 0C448 0 416 0 384 0C352 0 320 0 288 0C256 0 224 0 192 0C160 0 128 0 96 0C64 0 32 0 16 0L0 0Z" fill="#8f5b68"></path></svg>